# File created by Blade
# Date/Time:  Wed Jan 21 16:33:30 2015
# Frame Rate: 120.000 fps
#------------------------------------------------------
:FULLY-SPECIFIED
:DEGREES
1249
root 28.798331 12.804893 -27.750865 -36.445872 103.624603 -21.524517
Spine 78.943539 -5.362909 10.102270
Head -18.174348 -19.973597 -0.599042
LeftShoulder 6.180320 -17.099969 6.184101
LeftArm 16.030797 42.992071 -68.172493
LeftForeArm 6.090671 -0.000000 30.973019
LeftHand 1.462137 -0.000000 6.532232
LeftHandThumb1 -26.253704 0.000000 33.147579
RightShoulder 6.143908 -19.395397 1.066854
RightArm 44.313067 -12.040529 34.316544
RightForeArm -38.182723 -0.000000 9.413510
RightHand -8.234420 0.000000 -0.694311
RightHandThumb1 -24.326973 -0.000000 -32.862282
LeftUpLeg -83.848264 -0.819370 -12.805462
LeftLeg 129.972900 -0.000000 -0.000000
LeftFoot -54.029079 36.298582 -19.759229
LeftToeBase 22.844779 -0.000000 -0.000000
RightUpLeg -86.079781 3.660088 1.486720
RightLeg 138.393193 -0.000000 -0.000000
RightFoot -47.315228 -28.271218 17.505361
RightToeBase 18.086200 -0.000000 -0.000000
1250
root 28.730024 12.959860 -27.799534 -38.375915 103.199205 -24.594266
Spine 78.961921 -5.016343 9.844553
Head -19.173927 -19.653368 -0.482144
LeftShoulder 6.221299 -17.661843 6.352561
LeftArm 16.179371 41.854936 -67.823592
LeftForeArm 6.032376 0.000000 30.881920
LeftHand 1.338331 -0.000000 7.211678
LeftHandThumb1 -26.253704 0.000000 33.147579
RightShoulder 6.411349 -19.117413 0.822570
RightArm 44.488272 -11.327325 34.199262
RightForeArm -38.237533 -0.000000 9.282186
RightHand -8.150839 -0.000000 -0.406143
RightHandThumb1 -24.326973 -0.000000 -32.862282
LeftUpLeg -84.360354 -0.713785 -13.139547
LeftLeg 129.351054 -0.000000 -0.000000
LeftFoot -54.105233 36.491874 -20.052105
LeftToeBase 22.742666 -0.000000 -0.000000
RightUpLeg -86.617970 3.679801 1.456682
RightLeg 137.433270 -0.000000 -0.000000
RightFoot -48.461748 -29.018782 18.297830
RightToeBase 18.331177 -0.000000 -0.000000
1251
root 28.668842 13.126177 -27.836064 -40.378018 102.668389 -27.615813
Spine 79.115805 -4.632525 9.663841
Head -20.153139 -19.201206 -0.395319
LeftShoulder 6.332437 -18.446996 6.463607
LeftArm 16.109754 40.814895 -67.564688
LeftForeArm 5.911049 -0.000000 30.843115
LeftHand 1.685846 -0.000000 6.988007
LeftHandThumb1 -26.253704 0.000000 33.147579
RightShoulder 6.743709 -18.859468 0.496996
RightArm 44.676362 -10.752349 34.006593
RightForeArm -38.589731 0.000000 9.182765
RightHand -8.357911 -0.000000 -0.297570
RightHandThumb1 -24.326973 -0.000000 -32.862282
LeftUpLeg -84.731515 -0.366159 -13.357005
LeftLeg 128.738145 -0.000000 -0.000000
LeftFoot -54.210736 36.616173 -20.141977
LeftToeBase 22.721659 -0.000000 -0.000000
RightUpLeg -86.972721 3.859714 1.485541
RightLeg 136.350881 -0.000000 -0.000000
RightFoot -49.560551 -29.573344 18.829484
RightToeBase 18.822433 -0.000000 -0.000000
1252
root 28.625898 13.293634 -27.866650 -42.034981 102.109115 -30.135043
Spine 79.345694 -4.384116 9.517317
Head -21.080860 -18.698100 -0.362076
LeftShoulder 6.334052 -19.080183 6.576468
LeftArm 16.312649 39.839614 -67.105655
LeftForeArm 5.472454 -0.000000 30.621181
LeftHand 1.792176 0.000000 7.424806
LeftHandThumb1 -26.253704 0.000000 33.147579
RightShoulder 7.078416 -18.523171 0.109616
RightArm 44.892543 -10.377473 33.703826
RightForeArm -38.624050 -0.000000 9.113757
RightHand -8.265053 0.000000 -0.079372
RightHandThumb1 -24.326973 -0.000000 -32.862282
LeftUpLeg -84.960837 -0.049089 -13.379687
LeftLeg 128.171746 -0.000000 -0.000000
LeftFoot -54.361065 36.715281 -20.197858
LeftToeBase 22.780847 -0.000000 -0.000000
RightUpLeg -87.121056 4.036277 1.609067
RightLeg 135.327709 -0.000000 -0.000000
RightFoot -50.723449 -29.721039 19.467975
RightToeBase 19.459555 -0.000000 -0.000000
1253
root 28.566915 13.469245 -27.895904 -43.644901 101.519984 -32.727729
Spine 79.448156 -4.139659 9.375364
Head -22.033888 -18.149114 -0.374979
LeftShoulder 6.344970 -19.740184 6.603152
LeftArm 16.567511 39.027830 -66.505069
LeftForeArm 4.819152 -0.000000 30.384388
LeftHand 1.731224 -0.000000 7.871800
LeftHandThumb1 -26.253704 0.000000 33.147579
RightShoulder 7.457065 -17.949486 -0.329505
RightArm 44.950973 -10.270422 33.417929
RightForeArm -38.712975 0.000000 9.129830
RightHand -8.418814 -0.000000 -0.120487
RightHandThumb1 -24.326973 -0.000000 -32.862282
LeftUpLeg -85.295619 0.091367 -13.304530
LeftLeg 127.538098 -0.000000 -0.000000
LeftFoot -54.486023 36.995637 -20.294105
LeftToeBase 22.804816 -0.000000 -0.000000
RightUpLeg -87.349602 4.187230 1.767969
RightLeg 134.211451 -0.000000 -0.000000
RightFoot -51.832913 -29.897732 19.900891
RightToeBase 20.174811 -0.000000 -0.000000
1254
root 28.516450 13.651951 -27.913670 -45.565192 100.779447 -35.546718
Spine 79.629200 -3.758323 9.344212
Head -22.913482 -17.519518 -0.363950
LeftShoulder 6.447301 -20.775811 6.514235
LeftArm 16.377841 38.258106 -66.175048
LeftForeArm 4.678754 0.000000 30.103123
LeftHand 1.857959 -0.000000 7.892365
LeftHandThumb1 -26.253704 0.000000 33.147579
RightShoulder 7.652130 -17.326821 -0.623271
RightArm 45.133429 -10.300899 32.869016
RightForeArm -38.487349 -0.000000 9.165290
RightHand -8.382727 -0.000000 0.125881
RightHandThumb1 -24.326973 -0.000000 -32.862282
LeftUpLeg -85.569847 0.450369 -13.103293
LeftLeg 126.938666 -0.000000 -0.000000
LeftFoot -54.645360 37.198380 -20.439825
LeftToeBase 22.820237 -0.000000 -0.000000
RightUpLeg -87.419708 4.531976 2.005246
RightLeg 133.048811 -0.000000 -0.000000
RightFoot -52.965584 -30.089435 20.347375
RightToeBase 20.545932 -0.000000 -0.000000
1255
root 28.460777 13.841372 -27.949914 -46.889799 100.183663 -37.756011
Spine 79.696672 -3.737126 9.151356
Head -23.678166 -16.820508 -0.623555
LeftShoulder 6.346046 -21.400561 6.337213
LeftArm 16.814407 37.658251 -65.267999
LeftForeArm 3.995266 0.000000 29.677404
LeftHand 2.159379 -0.000000 8.187807
LeftHandThumb1 -26.253704 0.000000 33.147579
RightShoulder 8.051992 -17.032620 -1.127818
RightArm 45.458894 -9.975115 32.423211
RightForeArm -38.423903 0.000000 9.229852
RightHand -8.377285 0.000000 0.291094
RightHandThumb1 -24.326973 -0.000000 -32.862282
LeftUpLeg -85.795863 0.558926 -12.929051
LeftLeg 126.285147 -0.000000 -0.000000
LeftFoot -54.814762 37.544236 -20.532079
LeftToeBase 22.884180 -0.000000 -0.000000
RightUpLeg -87.425397 4.623987 2.142613
RightLeg 131.934847 -0.000000 -0.000000
RightFoot -54.042351 -30.032522 20.719718
RightToeBase 20.945601 -0.000000 -0.000000
1256
root 28.410544 14.046591 -27.987975 -49.797818 99.582406 -41.430317
Spine 79.923387 -3.573760 8.626686
Head -24.388860 -15.914929 -0.969297
LeftShoulder 5.985558 -21.407994 6.198004
LeftArm 18.206090 36.917331 -63.577326
LeftForeArm 3.189685 -0.000000 29.163023
LeftHand 2.186192 -0.000000 7.275325
LeftHandThumb1 -26.253704 0.000000 33.147579
RightShoulder 8.582829 -16.513436 -1.650521
RightArm 45.744782 -9.774300 32.042460
RightForeArm -38.399774 -0.000000 9.336978
RightHand -8.171577 -0.000000 0.608485
RightHandThumb1 -24.326973 -0.000000 -32.862282
LeftUpLeg -85.854216 0.884681 -12.857346
LeftLeg 125.588856 -0.000000 -0.000000
LeftFoot -54.941795 37.769458 -20.642287
LeftToeBase 22.829496 -0.000000 -0.000000
RightUpLeg -87.254748 4.877031 2.071273
RightLeg 130.851758 -0.000000 -0.000000
RightFoot -54.894406 -30.009950 20.693827
RightToeBase 21.577377 -0.000000 -0.000000
